<svg viewBox="0 0 448 512">
        <path d="M224,202a53,53,0,1,0,53,53A53,53,0,0,0,224,202Zm124-41a20,20,0,1,1,20-20A20,20,0,0,1,348,161ZM224,120c58.36,0,64.57.22,87.35,1.26a89.41,89.41,0,0,1,30.14,5.61,53.45,53.45,0,0,1,19.52,12.8,53.45,53.45,0,0,1,12.8,19.52,89.41,89.41,0,0,1,5.61,30.14c1,22.78,1.26,28.99,1.26,87.35s-.22,64.57-1.26,87.35a89.41,89.41,0,0,1-5.61,30.14,53.45,53.45,0,0,1-12.8,19.52,53.45,53.45,0,0,1-19.52,12.8,89.41,89.41,0,0,1-30.14,5.61c-22.78,1-28.99,1.26-87.35,1.26s-64.57-.22-87.35-1.26a89.41,89.41,0,0,1-30.14-5.61A53.45,53.45,0,0,1,86.06,433a53.45,53.45,0,0,1-12.8-19.52,89.41,89.41,0,0,1-5.61-30.14C66.63,360.57,66.41,354.36,66.41,296S66.63,231.43,67.67,208.65a89.41,89.41,0,0,1,5.61-30.14,53.45,53.45,0,0,1,12.8-19.52,53.45,53.45,0,0,1,19.52-12.8,89.41,89.41,0,0,1,30.14-5.61C159.43,120.22,165.64,120,224,120m0-40C165.29,80,158.69,80.24,135.78,81.27a129.55,129.55,0,0,0-42.19,8.25A93.31,93.31,0,0,0,56.48,112.1,93.31,93.31,0,0,0,33.06,138.59a129.55,129.55,0,0,0-8.25,42.19C24.24,203.31,24,209.91,24,268.62s.24,65.31,1.27,88.22a129.55,129.55,0,0,0,8.25,42.19A93.31,93.31,0,0,0,56.48,439.9a93.31,93.31,0,0,0,26.48,23.42,129.55,129.55,0,0,0,42.19,8.25c22.91,1,29.51,1.27,88.22,1.27s65.31-.24,88.22-1.27a129.55,129.55,0,0,0,42.19-8.25A93.31,93.31,0,0,0,391.52,439.9a93.31,93.31,0,0,0,23.42-26.48,129.55,129.55,0,0,0,8.25-42.19c1-22.91,1.27-29.51,1.27-88.22s-.24-65.31-1.27-88.22a129.55,129.55,0,0,0-8.25-42.19A93.31,93.31,0,0,0,391.52,112.1a93.31,93.31,0,0,0-26.48-23.42,129.55,129.55,0,0,0-42.19-8.25C288.69,80.24,282.09,80,224,80Z"/>
      </svg>